D:\Junayed_Zibat\opencap-processing\Data\312d5121-d82d-4833-a1b5-4f6827ad0820\OpenSimData\Dynamics\walking\GRF_resultant_walking_walking_setup.mot
version=1
nRows=15
nColumns=19
inDegrees=yes
endheader 
time	ground_force_right_vx	ground_force_right_vy	ground_force_right_vz	ground_force_right_px	ground_force_right_py	ground_force_right_pz	ground_torque_right_x	ground_torque_right_y	ground_torque_right_z	ground_force_left_vx	ground_force_left_vy	ground_force_left_vz	ground_force_left_px	ground_force_left_py	ground_force_left_pz	ground_torque_left_x	ground_torque_left_y	ground_torque_left_z	
          1.70000000	         21.31911433	        133.79637201	        118.44988827	          0.14623046	          0.00000000	         -0.11955774	          0.00000000	          0.00105799	          0.00000000	        -82.82362349	        696.38883410	        -54.79212280	          0.12146795	          0.00000000	         -0.47908076	          0.00000000	        -11.10789807	          0.00000000	
          1.71000000	         24.77013033	        154.39902113	        136.68479574	          0.14697034	          0.00000000	         -0.12073198	          0.00000000	          0.00399961	          0.00000000	        -90.61268755	        767.78901282	        -58.46109066	          0.12893342	          0.00000000	         -0.47826643	          0.00000000	        -13.53674516	          0.00000000	
          1.72000000	         22.89203981	        168.76100829	        141.09537668	          0.14794360	          0.00000000	         -0.12219154	          0.00000000	          0.01529143	          0.00000000	        -90.65836346	        815.64512425	        -60.94255721	          0.13739659	          0.00000000	         -0.47722766	          0.00000000	        -15.91465205	          0.00000000	
          1.73000000	         19.81594428	        175.76579012	        142.11938943	          0.14937836	          0.00000000	         -0.12365072	          0.00000000	          0.04424089	          0.00000000	        -92.69774334	        837.00174604	        -62.71899783	          0.14741159	          0.00000000	         -0.47574225	          0.00000000	        -18.00147890	          0.00000000	
          1.74000000	         16.40090729	        176.91298239	        142.10441559	          0.15169046	          0.00000000	         -0.12519100	          0.00000000	          0.10767391	          0.00000000	        -92.55521104	        818.26029126	        -64.16089715	          0.15655709	          0.00000000	         -0.47415977	          0.00000000	        -18.98073098	          0.00000000	
          1.75000000	         15.91676558	        176.02669390	        141.61305488	          0.15522233	          0.00000000	         -0.12679609	          0.00000000	          0.21402532	          0.00000000	        -88.90319266	        771.67348867	        -66.68890883	          0.16469003	          0.00000000	         -0.47248571	          0.00000000	        -19.05499968	          0.00000000	
          1.76000000	         12.72116407	        175.42179529	        141.32215337	          0.15916716	          0.00000000	         -0.12842312	          0.00000000	          0.35030772	          0.00000000	        -83.73244493	        715.76846688	        -69.68854933	          0.17222709	          0.00000000	         -0.47063876	          0.00000000	        -18.57464204	          0.00000000	
          1.77000000	         10.26849334	        177.19110800	        141.56013404	          0.16407068	          0.00000000	         -0.13035793	          0.00000000	          0.54022526	          0.00000000	        -77.43991565	        663.06150314	        -72.55477389	          0.17949691	          0.00000000	         -0.46858980	          0.00000000	        -17.78863188	          0.00000000	
          1.78000000	          4.92025635	        184.12366896	        142.12039283	          0.17085300	          0.00000000	         -0.13296188	          0.00000000	          0.84204444	          0.00000000	        -71.11627144	        618.85004172	        -75.39903488	          0.18675119	          0.00000000	         -0.46635763	          0.00000000	        -16.79511584	          0.00000000	
          1.79000000	          0.51031511	        196.12056589	        141.80455955	          0.17909739	          0.00000000	         -0.13598465	          0.00000000	          1.23670943	          0.00000000	        -64.30265677	        583.00189211	        -78.66430505	          0.19419131	          0.00000000	         -0.46399445	          0.00000000	        -15.58512161	          0.00000000	
          1.80000000	         -5.95676497	        211.96506636	        140.66986174	          0.18759065	          0.00000000	         -0.13895931	          0.00000000	          1.67263703	          0.00000000	        -57.53143242	        553.74590329	        -82.43354058	          0.20193479	          0.00000000	         -0.46156541	          0.00000000	        -14.09947764	          0.00000000	
          1.81000000	        -10.37963862	        230.82347589	        138.41559563	          0.19608158	          0.00000000	         -0.14167838	          0.00000000	          2.11562297	          0.00000000	        -50.52054356	        529.44102258	        -86.65655286	          0.21002085	          0.00000000	         -0.45914852	          0.00000000	        -12.29439444	          0.00000000	
          1.82000000	        -16.79555135	        251.98907695	        135.04052049	          0.20419364	          0.00000000	         -0.14405071	          0.00000000	          2.56012202	          0.00000000	        -43.58415090	        509.08071018	        -91.01354319	          0.21836109	          0.00000000	         -0.45683488	          0.00000000	        -10.19372328	          0.00000000	
          1.83000000	        -21.03528776	        274.14620799	        131.30568347	          0.21162222	          0.00000000	         -0.14601101	          0.00000000	          2.96957571	          0.00000000	        -36.82674858	        491.93206557	        -95.09309231	          0.22674697	          0.00000000	         -0.45473038	          0.00000000	         -7.89128062	          0.00000000	
          1.84000000	        -27.69413343	        299.30857985	        126.81067099	          0.21957810	          0.00000000	         -0.14767539	          0.00000000	          3.45552294	          0.00000000	        -29.97049227	        477.96502601	        -98.80276186	          0.23480654	          0.00000000	         -0.45294578	          0.00000000	         -5.61264738	          0.00000000	
